<?xml version="1.0" encoding="UTF-8" standalone="no"?><!-- Generator: Gravit.io --><svg xmlns="http://www.w3.org/2000/svg" xmlns:xlink="http://www.w3.org/1999/xlink" style="isolation:isolate" viewBox="0 0 1000 1000" width="1000pt" height="1000pt"><defs><clipPath id="_clipPath_SKinN5gk7OdGZnpJ2USmOlyUNmWnpkWm"><rect width="1000" height="1000"/></clipPath></defs><g clip-path="url(#_clipPath_SKinN5gk7OdGZnpJ2USmOlyUNmWnpkWm)"><path d="M 137.78 149.76 L 862.22 149.76 C 932.014 149.76 988.677 206.424 988.677 276.217 L 988.677 767.165 C 988.677 836.958 932.014 893.621 862.22 893.621 L 137.78 893.621 C 67.986 893.621 11.323 836.958 11.323 767.165 L 11.323 276.217 C 11.323 206.424 67.986 149.76 137.78 149.76 Z" style="stroke:none;fill:#DB504A;stroke-miterlimit:10;"/><g><path d="M 120.629 149.76 L 879.371 149.76 C 939.699 149.76 988.677 198.739 988.677 259.066 L 988.677 268.845 C 988.677 329.172 939.699 378.15 879.371 378.15 L 120.629 378.15 C 60.301 378.15 11.323 329.172 11.323 268.845 L 11.323 259.066 C 11.323 198.739 60.301 149.76 120.629 149.76 Z" style="stroke:none;fill:#083B66;stroke-miterlimit:10;"/><rect x="11.323" y="281.18" width="977.353" height="96.97" transform="matrix(1,0,0,1,0,0)" fill="rgb(8,59,102)"/></g><g><circle vector-effect="non-scaling-stroke" cx="265.86901477290536" cy="247.3682012263501" r="41.46734070779608" fill="rgb(255,255,255)"/><circle vector-effect="non-scaling-stroke" cx="676.7146673239926" cy="247.3682012263499" r="41.4673407077961" fill="rgb(255,255,255)"/><circle vector-effect="non-scaling-stroke" cx="485.96490006813053" cy="247.3682012263499" r="41.4673407077961" fill="rgb(255,255,255)"/></g><g><path d="M 265.008 106.379 L 266.73 106.379 C 282.099 106.379 294.577 118.857 294.577 134.226 L 294.577 253.333 C 294.577 268.702 282.099 281.18 266.73 281.18 L 265.008 281.18 C 249.639 281.18 237.161 268.702 237.161 253.333 L 237.161 134.226 C 237.161 118.857 249.639 106.379 265.008 106.379 Z" style="stroke:none;fill:#000000;stroke-miterlimit:10;"/><path d="M 675.853 106.379 L 677.576 106.379 C 692.945 106.379 705.423 118.857 705.423 134.226 L 705.423 253.333 C 705.423 268.702 692.945 281.18 677.576 281.18 L 675.853 281.18 C 660.484 281.18 648.007 268.702 648.007 253.333 L 648.007 134.226 C 648.007 118.857 660.484 106.379 675.853 106.379 Z" style="stroke:none;fill:#000000;stroke-miterlimit:10;"/><path d="M 485.104 106.379 L 486.826 106.379 C 502.195 106.379 514.673 118.857 514.673 134.226 L 514.673 253.333 C 514.673 268.702 502.195 281.18 486.826 281.18 L 485.104 281.18 C 469.735 281.18 457.257 268.702 457.257 253.333 L 457.257 134.226 C 457.257 118.857 469.735 106.379 485.104 106.379 Z" style="stroke:none;fill:#000000;stroke-miterlimit:10;"/></g><g><rect x="460.447" y="699.681" width="82.935" height="82.935" transform="matrix(1,0,0,1,0,0)" fill="rgb(255,255,255)"/><rect x="588.038" y="699.681" width="82.935" height="82.935" transform="matrix(1,0,0,1,0,0)" fill="rgb(255,255,255)"/><rect x="332.855" y="699.681" width="82.935" height="82.935" transform="matrix(1,0,0,1,0,0)" fill="rgb(255,255,255)"/><rect x="205.263" y="699.681" width="82.935" height="82.935" transform="matrix(1,0,0,1,0,0)" fill="rgb(255,255,255)"/><rect x="77.671" y="699.681" width="82.935" height="82.935" transform="matrix(1,0,0,1,0,0)" fill="rgb(255,255,255)"/><rect x="460.447" y="444.498" width="82.935" height="82.935" transform="matrix(1,0,0,1,0,0)" fill="rgb(255,255,255)"/><rect x="588.038" y="444.498" width="82.935" height="82.935" transform="matrix(1,0,0,1,0,0)" fill="rgb(255,255,255)"/><rect x="715.63" y="444.498" width="82.935" height="82.935" transform="matrix(1,0,0,1,0,0)" fill="rgb(255,255,255)"/><rect x="843.222" y="444.498" width="82.935" height="82.935" transform="matrix(1,0,0,1,0,0)" fill="rgb(255,255,255)"/><rect x="458.533" y="572.089" width="82.935" height="82.935" transform="matrix(1,0,0,1,0,0)" fill="rgb(255,255,255)"/><rect x="586.124" y="572.089" width="82.935" height="82.935" transform="matrix(1,0,0,1,0,0)" fill="rgb(255,255,255)"/><rect x="330.941" y="572.089" width="82.935" height="82.935" transform="matrix(1,0,0,1,0,0)" fill="rgb(255,255,255)"/><rect x="713.716" y="572.089" width="82.935" height="82.935" transform="matrix(1,0,0,1,0,0)" fill="rgb(255,255,255)"/><rect x="203.349" y="572.089" width="82.935" height="82.935" transform="matrix(1,0,0,1,0,0)" fill="rgb(255,255,255)"/><rect x="75.757" y="572.089" width="82.935" height="82.935" transform="matrix(1,0,0,1,0,0)" fill="rgb(255,255,255)"/><rect x="841.308" y="572.089" width="82.935" height="82.935" transform="matrix(1,0,0,1,0,0)" fill="rgb(255,255,255)"/></g></g></svg>