<?xml version="1.0" encoding="UTF-8" standalone="no"?><!-- Generator: Gravit.io --><svg xmlns="http://www.w3.org/2000/svg" xmlns:xlink="http://www.w3.org/1999/xlink" style="isolation:isolate" viewBox="0 0 1000 1000" width="1000pt" height="1000pt"><defs><clipPath id="_clipPath_sBvA9JlO2ODq8oWiugWeZXoLAb4eiAsP"><rect width="1000" height="1000"/></clipPath></defs><g clip-path="url(#_clipPath_sBvA9JlO2ODq8oWiugWeZXoLAb4eiAsP)"><clipPath id="_clipPath_CHVpbNLeUhMOudRMkQztsrQroY58eofJ"><rect x="0" y="0" width="1000" height="1000" transform="matrix(1,0,0,1,0,0)" fill="rgb(255,255,255)"/></clipPath><g clip-path="url(#_clipPath_CHVpbNLeUhMOudRMkQztsrQroY58eofJ)"><g><path d=" M 592.335 713.978 L 650.783 687.5 L 709.231 661.021 C 763.431 636.468 807.211 664.84 806.937 724.341 L 806.542 810.16 L 806.148 895.98 C 805.873 955.48 767.698 973.899 720.952 937.087 L 649.891 881.128 L 578.831 825.167 C 532.085 788.354 538.135 738.531 592.335 713.978 Z " fill="rgb(8,59,102)"/><path d=" M 140.273 43.951 L 859.729 43.951 C 933.11 43.951 992.687 103.528 992.687 176.911 L 992.687 670.759 C 992.687 744.142 933.11 803.718 859.729 803.718 L 140.273 803.718 C 66.89 803.718 7.313 744.142 7.313 670.759 L 7.313 176.911 C 7.313 103.528 66.89 43.951 140.273 43.951 Z " fill="rgb(8,59,102)"/><path d=" M 425.351 620.511 L 738.652 478.579 L 736.869 865.832 L 425.351 620.511 Z " fill="rgb(255,255,255)"/><path d=" M 143.075 103.672 L 856.925 103.672 C 898.894 103.672 932.968 137.744 932.968 179.714 L 932.968 661.321 C 932.968 703.29 898.894 737.362 856.925 737.362 L 143.075 737.362 C 101.106 737.362 67.032 703.29 67.032 661.321 L 67.032 179.714 C 67.032 137.744 101.106 103.672 143.075 103.672 Z " fill="rgb(255,255,255)"/><clipPath id="_clipPath_jbyEWBIQNdFyhD4NMdDVoKKRfXZikcvU"><path d=" M 143.075 103.672 L 856.925 103.672 C 898.894 103.672 932.968 137.744 932.968 179.714 L 932.968 661.321 C 932.968 703.29 898.894 737.362 856.925 737.362 L 143.075 737.362 C 101.106 737.362 67.032 703.29 67.032 661.321 L 67.032 179.714 C 67.032 137.744 101.106 103.672 143.075 103.672 Z " fill="rgb(255,255,255)"/></clipPath><g clip-path="url(#_clipPath_jbyEWBIQNdFyhD4NMdDVoKKRfXZikcvU)"><g><path d=" M 204.72 229.747 L 785.328 229.747 C 795.398 229.747 803.574 237.923 803.574 247.993 L 803.574 284.49 C 803.574 294.56 795.398 302.736 785.328 302.736 L 204.72 302.736 C 194.649 302.736 186.472 294.56 186.472 284.49 L 186.472 247.993 C 186.472 237.923 194.649 229.747 204.72 229.747 Z " fill="rgb(219,80,74)"/><path d=" M 204.72 528.344 L 785.328 528.344 C 795.398 528.344 803.574 536.521 803.574 546.593 L 803.574 583.088 C 803.574 593.158 795.398 601.334 785.328 601.334 L 204.72 601.334 C 194.649 601.334 186.472 593.158 186.472 583.088 L 186.472 546.593 C 186.472 536.521 194.649 528.344 204.72 528.344 Z " fill="rgb(219,80,74)"/><path d=" M 204.72 379.045 L 785.328 379.045 C 795.398 379.045 803.574 387.222 803.574 397.292 L 803.574 433.789 C 803.574 443.859 795.398 452.035 785.328 452.035 L 204.72 452.035 C 194.649 452.035 186.472 443.859 186.472 433.789 L 186.472 397.292 C 186.472 387.222 194.649 379.045 204.72 379.045 Z " fill="rgb(219,80,74)"/></g></g></g></g></g></svg>