<?xml version="1.0" encoding="UTF-8" standalone="no"?><!-- Generator: Gravit.io --><svg xmlns="http://www.w3.org/2000/svg" xmlns:xlink="http://www.w3.org/1999/xlink" style="isolation:isolate" viewBox="0 0 1000 1000" width="1000pt" height="1000pt"><defs><clipPath id="_clipPath_rST1WpXvMva2KhFfEtQFdLFDXtdbs1EJ"><rect width="1000" height="1000"/></clipPath></defs><g clip-path="url(#_clipPath_rST1WpXvMva2KhFfEtQFdLFDXtdbs1EJ)"><clipPath id="_clipPath_Gea5BiFEim0I2SEDlao1EHXU2WORkfrp"><rect x="0" y="0" width="1000" height="1000" transform="matrix(1,0,0,1,0,0)" fill="rgb(255,255,255)"/></clipPath><g clip-path="url(#_clipPath_Gea5BiFEim0I2SEDlao1EHXU2WORkfrp)"><g><g><path d=" M 771.279 635.663 C 771.092 621.67 775.316 607.977 783.326 596.57 C 889.657 449.605 868.874 245.093 735.199 123.086 C 601.532 1.079 398.299 1.126 264.679 123.196 C 131.066 245.258 110.368 449.786 216.769 596.704 C 224.718 608.009 228.902 621.575 228.723 635.45 L 228.723 839.276 C 228.754 856.398 235.464 872.819 247.394 884.967 C 269.448 906.779 303.533 910.137 329.326 893.039 C 347.164 881.482 357.512 861.152 356.46 839.757 C 356.094 805.047 382.955 776.282 417.235 774.666 C 435.096 774.563 452.248 781.745 464.809 794.586 C 477.379 807.436 484.299 824.858 484.011 842.926 L 484.011 901.048 C 483.45 934.993 508.292 963.908 541.606 968.078 C 559.529 969.86 577.359 963.9 590.708 951.666 C 604.049 939.439 611.67 922.072 611.685 903.854 L 611.685 750.48 C 611.615 729.117 628.073 711.427 649.152 710.198 C 660.444 710 671.33 714.462 679.31 722.543 C 687.29 730.623 691.685 741.643 691.482 753.066 L 691.482 798.914 C 691.365 820.309 707.839 838.046 728.949 839.276 C 740.256 839.473 751.151 835.003 759.138 826.907 C 767.118 818.803 771.505 807.767 771.279 796.329 L 771.279 635.663 L 771.279 635.663 L 771.279 635.663 Z " fill-rule="evenodd" fill="rgb(219,80,74)"/></g><path d=" M 381.483 545.28 L 359.118 535.148 L 336.752 525.016 C 316.013 515.621 299.26 526.477 299.365 549.245 L 299.516 582.084 L 299.668 614.923 C 299.772 637.691 314.38 644.739 332.267 630.653 L 359.459 609.24 L 386.65 587.826 C 404.538 573.74 402.222 554.676 381.483 545.28 Z " fill="rgb(8,59,102)"/><path d=" M 278.513 289.047 L 553.812 289.047 C 581.892 289.047 604.689 311.844 604.689 339.924 L 604.689 528.895 C 604.689 556.975 581.892 579.772 553.812 579.772 L 278.513 579.772 C 250.433 579.772 227.636 556.975 227.636 528.895 L 227.636 339.924 C 227.636 311.844 250.433 289.047 278.513 289.047 Z " fill="rgb(8,59,102)"/><path d=" M 440.13 509.245 L 324.756 456.977 L 325.412 599.585 L 440.13 509.245 Z " fill="rgb(255,255,255)"/><path d=" M 279.585 311.899 L 552.74 311.899 C 568.799 311.899 581.838 324.937 581.838 340.996 L 581.838 525.283 C 581.838 541.343 568.799 554.381 552.74 554.381 L 279.585 554.381 C 263.526 554.381 250.487 541.343 250.487 525.283 L 250.487 340.996 C 250.487 324.937 263.526 311.899 279.585 311.899 Z " fill="rgb(255,255,255)"/><path d=" M 617.169 417.386 L 639.534 407.254 L 661.9 397.122 C 682.639 387.726 699.392 398.583 699.287 421.351 L 699.136 454.19 L 698.985 487.028 C 698.88 509.796 684.272 516.845 666.385 502.758 L 639.193 481.345 L 612.002 459.932 C 594.115 445.846 596.43 426.781 617.169 417.386 Z " fill="rgb(8,59,102)"/><path d=" M 444.188 161 L 719.487 161 C 747.567 161 770.364 183.797 770.364 211.877 L 770.364 400.848 C 770.364 428.928 747.567 451.725 719.487 451.725 L 444.188 451.725 C 416.108 451.725 393.311 428.928 393.311 400.848 L 393.311 211.877 C 393.311 183.797 416.108 161 444.188 161 Z " fill="rgb(8,59,102)"/><path d=" M 553.273 381.621 L 673.158 327.31 L 672.475 475.493 L 553.273 381.621 Z " fill="rgb(255,255,255)"/><path d=" M 445.26 183.852 L 718.415 183.852 C 734.474 183.852 747.513 196.89 747.513 212.95 L 747.513 397.236 C 747.513 413.296 734.474 426.334 718.415 426.334 L 445.26 426.334 C 429.201 426.334 416.162 413.296 416.162 397.236 L 416.162 212.95 C 416.162 196.89 429.201 183.852 445.26 183.852 Z " fill="rgb(255,255,255)"/></g></g><path d=" M 210.706 251.601 C 206.504 247.447 205.957 240.202 209.868 233.573 C 256.275 154.885 325.851 96.928 383.001 89.356 C 391.694 88.204 398.063 94.302 397.222 102.98 C 396.385 111.659 388.662 119.626 379.974 120.775 C 334.825 126.758 275.702 177.719 236.197 244.703 C 231.363 252.897 221.55 257.049 214.28 253.978 C 212.893 253.389 211.696 252.58 210.706 251.601 Z " fill="rgb(255,255,255)"/></g></svg>