<?xml version="1.0" encoding="UTF-8" standalone="no"?><!-- Generator: Gravit.io --><svg xmlns="http://www.w3.org/2000/svg" xmlns:xlink="http://www.w3.org/1999/xlink" style="isolation:isolate" viewBox="0 0 1200 850" width="1200pt" height="850pt"><defs><clipPath id="_clipPath_PUg6llgGQPH07T5chZydiYij5kUVi7Ch"><rect width="1200" height="850"/></clipPath></defs><g clip-path="url(#_clipPath_PUg6llgGQPH07T5chZydiYij5kUVi7Ch)"><text transform="matrix(1,0,0,1,640,403.63)" style="font-family:'Bungee';font-weight:400;font-size:275px;font-style:normal;fill:#083b66;stroke:none;">L8Z</text><text transform="matrix(1,0,0,1,648,570.212)" style="font-family:'Bungee';font-weight:400;font-size:201px;font-style:normal;fill:#db504a;stroke:none;">Chat</text><clipPath id="_clipPath_AJ9eV5CDFGGwnfaw39HcE4ZKtJoszTIN"><rect x="-97" y="0" width="850" height="850" transform="matrix(1,0,0,1,0,0)" fill="rgb(255,255,255)"/></clipPath><g clip-path="url(#_clipPath_AJ9eV5CDFGGwnfaw39HcE4ZKtJoszTIN)"><g><clipPath id="_clipPath_tpDWYm5uoJucL6rPF80ZDvSQQ7fj7R9c"><rect x="-97" y="0" width="850" height="850" transform="matrix(1,0,0,1,0,0)" fill="rgb(255,255,255)"/></clipPath><g clip-path="url(#_clipPath_tpDWYm5uoJucL6rPF80ZDvSQQ7fj7R9c)"><g><g><g><path d=" M 558.587 540.314 C 558.428 528.419 562.019 516.78 568.827 507.085 C 659.208 382.164 641.543 208.329 527.919 104.623 C 414.302 0.917 241.554 0.957 127.977 104.717 C 14.406 208.469 -3.187 382.318 87.254 507.198 C 94.01 516.808 97.567 528.339 97.415 540.132 L 97.415 713.385 C 97.441 727.938 103.144 741.896 113.285 752.222 C 132.031 770.762 161.003 773.616 182.927 759.083 C 198.089 749.26 206.885 731.979 205.991 713.793 C 205.68 684.29 228.512 659.84 257.65 658.466 C 272.832 658.379 287.411 664.483 298.088 675.398 C 308.772 686.321 314.654 701.129 314.409 716.487 L 314.409 765.891 C 313.933 794.744 335.048 819.322 363.365 822.866 C 378.6 824.381 393.755 819.315 405.102 808.916 C 416.442 798.523 422.919 783.761 422.932 768.276 L 422.932 637.908 C 422.873 619.749 436.862 604.713 454.779 603.668 C 464.377 603.5 473.631 607.293 480.413 614.162 C 487.196 621.03 490.932 630.397 490.76 640.106 L 490.76 679.077 C 490.66 697.263 504.663 712.339 522.607 713.385 C 532.218 713.552 541.478 709.753 548.267 702.871 C 555.05 695.983 558.779 686.602 558.587 676.88 L 558.587 540.314 L 558.587 540.314 L 558.587 540.314 Z " fill-rule="evenodd" fill="rgb(219,80,74)"/></g><path d=" M 227.261 463.488 L 208.25 454.876 L 189.239 446.264 C 171.611 438.278 157.371 447.505 157.46 466.858 L 157.589 494.771 L 157.718 522.685 C 157.806 542.037 170.223 548.028 185.427 536.055 L 208.54 517.854 L 231.652 499.652 C 246.857 487.679 244.889 471.475 227.261 463.488 Z " fill="rgb(8,59,102)"/><path d=" M 139.736 245.69 L 373.74 245.69 C 397.608 245.69 416.986 265.067 416.986 288.935 L 416.986 449.561 C 416.986 473.429 397.608 492.806 373.74 492.806 L 139.736 492.806 C 115.868 492.806 96.491 473.429 96.491 449.561 L 96.491 288.935 C 96.491 265.067 115.868 245.69 139.736 245.69 Z " fill="rgb(8,59,102)"/><path d=" M 277.111 432.858 L 179.043 388.43 L 179.6 509.647 L 277.111 432.858 Z " fill="rgb(255,255,255)"/><path d=" M 140.647 265.114 L 372.829 265.114 C 386.479 265.114 397.562 276.196 397.562 289.847 L 397.562 446.491 C 397.562 460.142 386.479 471.224 372.829 471.224 L 140.647 471.224 C 126.997 471.224 115.914 460.142 115.914 446.491 L 115.914 289.847 C 115.914 276.196 126.997 265.114 140.647 265.114 Z " fill="rgb(255,255,255)"/><path d=" M 427.594 354.778 L 446.604 346.166 L 465.615 337.554 C 483.243 329.567 497.483 338.796 497.394 358.148 L 497.266 386.061 L 497.137 413.974 C 497.048 433.327 484.631 439.318 469.427 427.344 L 446.314 409.143 L 423.202 390.942 C 407.998 378.969 409.965 362.764 427.594 354.778 Z " fill="rgb(8,59,102)"/><path d=" M 280.56 136.85 L 514.564 136.85 C 538.432 136.85 557.809 156.227 557.809 180.095 L 557.809 340.721 C 557.809 364.589 538.432 383.966 514.564 383.966 L 280.56 383.966 C 256.692 383.966 237.314 364.589 237.314 340.721 L 237.314 180.095 C 237.314 156.227 256.692 136.85 280.56 136.85 Z " fill="rgb(8,59,102)"/><path d=" M 373.282 324.378 L 475.184 278.213 L 474.604 404.169 L 373.282 324.378 Z " fill="rgb(255,255,255)"/><path d=" M 281.471 156.274 L 513.653 156.274 C 527.303 156.274 538.386 167.356 538.386 181.007 L 538.386 337.651 C 538.386 351.302 527.303 362.384 513.653 362.384 L 281.471 362.384 C 267.821 362.384 256.738 351.302 256.738 337.651 L 256.738 181.007 C 256.738 167.356 267.821 156.274 281.471 156.274 Z " fill="rgb(255,255,255)"/></g></g></g><path d=" M 82.1 213.861 C 78.528 210.33 78.063 204.172 81.388 198.537 C 120.834 131.652 179.973 82.389 228.551 75.953 C 235.94 74.973 241.354 80.157 240.639 87.533 C 239.927 94.91 233.363 101.682 225.978 102.659 C 187.601 107.744 137.347 151.061 103.767 207.998 C 99.659 214.962 91.318 218.492 85.138 215.881 C 83.959 215.381 82.942 214.693 82.1 213.861 Z " fill="rgb(255,255,255)"/></g></g></g></svg>