<?xml version="1.0" encoding="UTF-8" standalone="no"?><!-- Generator: Gravit.io --><svg xmlns="http://www.w3.org/2000/svg" xmlns:xlink="http://www.w3.org/1999/xlink" style="isolation:isolate" viewBox="0 0 512 512" width="512pt" height="512pt"><defs><clipPath id="_clipPath_yn7tJ0TFk8DZIQqiaZkHcumGsft2C08j"><rect width="512" height="512"/></clipPath></defs><g clip-path="url(#_clipPath_yn7tJ0TFk8DZIQqiaZkHcumGsft2C08j)"><path d=" M 362 392 L 362 432 C 362 476.113 326.113 512 282 512 L 81 512 C 36.887 512 1 476.113 1 432 L 1 80 C 1 35.887 36.887 0 81 0 L 282 0 C 326.113 0 362 35.887 362 80 L 362 120 C 362 131.047 353.047 140 342 140 C 330.953 140 322 131.047 322 120 L 322 80 C 322 57.945 304.055 40 282 40 L 81 40 C 58.945 40 41 57.945 41 80 L 41 432 C 41 454.055 58.945 472 81 472 L 282 472 C 304.055 472 322 454.055 322 432 L 322 392 C 322 380.953 330.953 372 342 372 C 353.047 372 362 380.953 362 392 Z  M 498.355 221.645 L 453.57 176.859 C 445.758 169.047 433.094 169.047 425.285 176.859 C 417.473 184.668 417.473 197.332 425.285 205.141 L 457.141 237 L 217 237 C 205.953 237 197 245.953 197 257 C 197 268.047 205.953 277 217 277 L 457.141 277 L 425.285 308.859 C 417.473 316.668 417.473 329.332 425.285 337.141 C 429.191 341.047 434.309 343 439.426 343 C 444.547 343 449.664 341.047 453.57 337.141 L 498.355 292.355 C 517.852 272.859 517.852 241.141 498.355 221.645 L 498.355 221.645 Z " fill="rgb(255,255,255)"/></g></svg>