<?xml version="1.0" encoding="UTF-8" standalone="no"?><!-- Generator: Gravit.io --><svg xmlns="http://www.w3.org/2000/svg" xmlns:xlink="http://www.w3.org/1999/xlink" style="isolation:isolate" viewBox="0 0 1000 1000" width="1000pt" height="1000pt"><defs><clipPath id="_clipPath_oixGMlzitN8qthpZAsB8pDwpLw9RFhfF"><rect width="1000" height="1000"/></clipPath></defs><g clip-path="url(#_clipPath_oixGMlzitN8qthpZAsB8pDwpLw9RFhfF)"><circle vector-effect="non-scaling-stroke" cx="498.50000000000017" cy="498.4999999999999" r="432.3830409356724" fill="rgb(219,80,74)"/><circle vector-effect="non-scaling-stroke" cx="499.45029144736833" cy="438.37915752923993" r="154.70463267543863" fill="rgb(255,255,255)"/><path d=" M 843.215 153.785 C 751.139 61.709 628.714 11 498.5 11 C 368.279 11 245.861 61.709 153.785 153.785 C 61.709 245.861 11 368.279 11 498.5 C 11 628.714 61.709 751.139 153.785 843.215 C 245.861 935.291 368.279 986 498.5 986 C 628.714 986 751.139 935.291 843.215 843.215 C 935.291 751.139 986 628.714 986 498.5 C 986 368.279 935.291 245.861 843.215 153.785 L 843.215 153.785 Z  M 255.397 853.436 C 275.787 736.039 377.518 649.445 498.5 649.445 C 619.49 649.445 721.213 736.039 741.603 853.436 C 672.386 900.991 588.642 928.871 498.5 928.871 C 408.358 928.871 324.614 900.991 255.397 853.436 Z  M 343.493 437.31 C 343.493 351.832 413.03 282.303 498.5 282.303 C 583.97 282.303 653.507 351.839 653.507 437.31 C 653.507 522.78 583.97 592.316 498.5 592.316 C 413.03 592.316 343.493 522.78 343.493 437.31 L 343.493 437.31 Z  M 791.085 813.81 C 775.709 759.158 745.173 709.572 702.371 670.839 C 676.113 647.072 646.224 628.319 614.089 615.101 C 672.17 577.216 710.643 511.674 710.643 437.31 C 710.643 320.337 615.473 225.174 498.5 225.174 C 381.527 225.174 286.364 320.337 286.364 437.31 C 286.364 511.674 324.837 577.216 382.911 615.101 C 350.783 628.319 320.887 647.065 294.629 670.831 C 251.834 709.565 221.291 759.151 205.915 813.802 C 121.226 735.154 68.129 622.919 68.129 498.5 C 68.129 261.192 261.192 68.129 498.5 68.129 C 735.808 68.129 928.871 261.192 928.871 498.5 C 928.871 622.926 875.774 735.161 791.085 813.81 L 791.085 813.81 Z " fill="rgb(8,59,102)"/><path d=" M 751.828 886.734 C 744.953 753.909 634.924 648.201 500.401 648.201 C 364.117 648.201 252.973 753.814 248.708 889.07 C 415.741 969.291 583.447 970.45 751.828 886.734 L 751.828 886.734 Z " fill="rgb(255,255,255)"/></g></svg>