<?xml version="1.0" encoding="UTF-8" standalone="no"?><!-- Generator: Gravit.io --><svg xmlns="http://www.w3.org/2000/svg" xmlns:xlink="http://www.w3.org/1999/xlink" style="isolation:isolate" viewBox="0 0 1000 1000" width="1000pt" height="1000pt"><defs><clipPath id="_clipPath_ct7RBtc0NtBDsXFUuYddq2cOPQD4R8BR"><rect width="1000" height="1000"/></clipPath></defs><g clip-path="url(#_clipPath_ct7RBtc0NtBDsXFUuYddq2cOPQD4R8BR)"><g><path d=" M 978 598.484 L 978 399.516 L 885.884 368.197 C 880.357 351.616 872.989 335.036 865.618 318.454 L 907.991 231.866 L 766.134 90.009 L 679.546 132.382 C 664.807 123.17 648.227 117.643 629.803 112.116 L 598.484 20 L 399.516 20 L 368.197 112.116 C 351.616 117.643 335.036 125.011 318.454 132.382 L 231.866 90.009 L 90.009 231.866 L 132.382 318.454 C 123.17 333.193 117.643 349.773 112.116 368.197 L 20 399.516 L 20 598.484 L 112.116 629.803 C 117.643 646.384 125.011 662.964 132.382 679.546 L 90.009 766.134 L 231.866 907.991 L 318.454 865.618 C 335.036 872.987 351.616 880.357 368.197 885.884 L 399.516 978 L 598.484 978 L 629.803 885.884 C 646.384 880.357 662.964 872.989 679.546 865.618 L 766.134 907.991 L 907.991 766.134 L 865.618 679.546 C 872.987 662.964 880.357 646.384 885.884 629.803 L 978 598.484 Z  M 499 771.661 C 347.932 771.661 226.339 650.068 226.339 499 C 226.339 347.932 347.932 226.339 499 226.339 C 650.068 226.339 771.661 347.932 771.661 499 C 771.661 650.068 650.068 771.661 499 771.661 Z " fill="rgb(8,59,102)"/><circle vector-effect="non-scaling-stroke" cx="498.86581640624985" cy="498.33860546874985" r="275" fill="rgb(255,255,255)"/></g></g></svg>