<?xml version="1.0" encoding="UTF-8" standalone="no"?><!-- Generator: Gravit.io --><svg xmlns="http://www.w3.org/2000/svg" xmlns:xlink="http://www.w3.org/1999/xlink" style="isolation:isolate" viewBox="0 0 1000 1000" width="1000pt" height="1000pt"><defs><clipPath id="_clipPath_bhmEpLFpcKEabpvY9Gi4g7ukibTQNsg4"><rect width="1000" height="1000"/></clipPath></defs><g clip-path="url(#_clipPath_bhmEpLFpcKEabpvY9Gi4g7ukibTQNsg4)"><g><g><g><path d=" M 902.856 478.042 C 870.085 445.272 831.08 421.013 788.523 406.328 C 834.102 374.935 864.048 322.396 864.048 262.988 C 864.048 167.076 786.017 89.045 690.105 89.045 C 594.194 89.045 516.163 167.076 516.163 262.988 C 516.163 322.396 546.108 374.935 591.689 406.328 C 549.132 421.013 510.127 445.272 477.356 478.042 C 420.529 534.87 389.232 610.426 389.232 690.792 L 436.243 690.792 C 436.243 550.812 550.125 436.93 690.105 436.93 C 830.085 436.93 943.967 550.812 943.967 690.792 L 990.979 690.792 C 990.979 610.426 959.682 534.87 902.856 478.042 Z  M 690.105 389.919 C 620.116 389.919 563.174 332.978 563.174 262.988 C 563.174 192.997 620.116 136.057 690.105 136.057 C 760.095 136.057 817.036 192.997 817.036 262.988 C 817.036 332.978 760.095 389.919 690.105 389.919 Z " fill="rgb(219,80,74)"/><path d=" M 945.142 690.792 C 944.512 550.569 830.473 436.925 690.1 436.925 C 549.727 436.925 435.688 550.569 435.057 690.792 L 945.142 690.792 L 945.142 690.792 Z " fill="rgb(255,255,255)"/><circle vector-effect="non-scaling-stroke" cx="690.1052097552652" cy="262.9876217656129" r="128.10621226484795" fill="rgb(255,255,255)"/></g></g></g><g><g><g><path d=" M 520.624 478.042 C 487.853 445.272 448.848 421.013 406.291 406.328 C 451.871 374.935 481.816 322.396 481.816 262.988 C 481.816 167.076 403.785 89.045 307.873 89.045 C 211.962 89.045 133.931 167.076 133.931 262.988 C 133.931 322.396 163.876 374.935 209.457 406.328 C 166.9 421.013 127.895 445.272 95.124 478.042 C 38.297 534.87 7 610.426 7 690.792 L 54.011 690.792 C 54.011 550.812 167.893 436.93 307.873 436.93 C 447.853 436.93 561.735 550.812 561.735 690.792 L 608.747 690.792 C 608.747 610.426 577.45 534.87 520.624 478.042 Z  M 307.873 389.919 C 237.884 389.919 180.942 332.978 180.942 262.988 C 180.942 192.997 237.884 136.057 307.873 136.057 C 377.863 136.057 434.804 192.997 434.804 262.988 C 434.804 332.978 377.863 389.919 307.873 389.919 Z " fill="rgb(219,80,74)"/><path d=" M 562.91 690.792 C 562.28 550.569 448.241 436.925 307.868 436.925 C 167.495 436.925 53.456 550.569 52.825 690.792 L 562.91 690.792 L 562.91 690.792 Z " fill="rgb(255,255,255)"/><circle vector-effect="non-scaling-stroke" cx="307.8733058697347" cy="262.9876217656129" r="128.10621226484795" fill="rgb(255,255,255)"/></g></g></g><g><g><g><path d=" M 777.635 597.122 C 734.832 554.321 683.887 522.636 628.302 503.455 C 687.835 462.452 726.947 393.83 726.947 316.235 C 726.947 190.963 625.029 89.045 499.757 89.045 C 374.485 89.045 272.567 190.963 272.567 316.235 C 272.567 393.83 311.679 462.452 371.213 503.455 C 315.628 522.636 264.683 554.321 221.88 597.122 C 147.657 671.347 106.779 770.032 106.779 875 L 168.182 875 C 168.182 692.169 316.926 543.425 499.757 543.425 C 682.588 543.425 831.331 692.169 831.331 875 L 892.734 875 C 892.734 770.032 851.857 671.347 777.635 597.122 Z  M 499.757 482.023 C 408.342 482.023 333.969 407.652 333.969 316.235 C 333.969 224.819 408.342 150.448 499.757 150.448 C 591.172 150.448 665.544 224.819 665.544 316.235 C 665.544 407.652 591.172 482.023 499.757 482.023 Z " fill="rgb(8,59,102)"/><path d=" M 832.867 875 C 832.043 691.851 683.094 543.419 499.75 543.419 C 316.405 543.419 167.456 691.851 166.633 875 L 832.867 875 L 832.867 875 Z " fill="rgb(255,255,255)"/><circle vector-effect="non-scaling-stroke" cx="499.75679175604535" cy="316.23528909906406" r="167.32239969286263" fill="rgb(255,255,255)"/></g></g></g></g></svg>